# Blender v2.81 (sub 16) OBJ File: 'axis.blend'
# www.blender.org
mtllib axis.mtl
o Cylinder
v 0.000000 0.000000 -0.050000
v 0.000000 2.023777 -0.050000
v 0.035355 0.000000 -0.035355
v 0.035355 2.023777 -0.035355
v 0.050000 0.000000 0.000000
v 0.050000 2.023777 0.000000
v 0.035355 0.000000 0.035355
v 0.035355 2.023777 0.035355
v -0.000000 0.000000 0.050000
v -0.000000 2.023777 0.050000
v -0.035355 0.000000 0.035355
v -0.035355 2.023777 0.035355
v -0.050000 0.000000 -0.000000
v -0.050000 2.023777 -0.000000
v -0.035355 0.000000 -0.035355
v -0.035355 2.023777 -0.035355
v 0.000000 2.023777 -0.110198
v 0.077922 2.023777 -0.077922
v 0.110198 2.023777 0.000000
v 0.077922 2.023777 0.077922
v -0.000000 2.023777 0.110198
v -0.077922 2.023777 0.077922
v -0.110198 2.023777 -0.000000
v -0.077922 2.023777 -0.077922
v 0.000000 2.363215 0.000000
v 0.000000 -0.054631 0.003246
v 0.000000 -0.054631 -2.020530
v 0.035355 -0.039986 0.003246
v 0.035355 -0.039986 -2.020530
v 0.050000 -0.004631 0.003246
v 0.050000 -0.004631 -2.020530
v 0.035355 0.030724 0.003246
v 0.035355 0.030725 -2.020530
v -0.000000 0.045369 0.003246
v -0.000000 0.045369 -2.020530
v -0.035355 0.030724 0.003246
v -0.035355 0.030724 -2.020530
v -0.050000 -0.004631 0.003246
v -0.050000 -0.004631 -2.020530
v -0.035355 -0.039986 0.003246
v -0.035355 -0.039986 -2.020530
v 0.000000 -0.114829 -2.020530
v 0.077922 -0.082552 -2.020530
v 0.110198 -0.004631 -2.020530
v 0.077922 0.073291 -2.020530
v -0.000000 0.105567 -2.020530
v -0.077922 0.073291 -2.020530
v -0.110198 -0.004631 -2.020530
v -0.077922 -0.082552 -2.020530
v 0.000000 -0.004631 -2.359969
v -0.003710 -0.054631 0.002955
v 2.020066 -0.054631 0.002954
v -0.003710 -0.039986 0.038310
v 2.020066 -0.039986 0.038310
v -0.003710 -0.004631 0.052955
v 2.020066 -0.004631 0.052954
v -0.003710 0.030724 0.038310
v 2.020066 0.030725 0.038310
v -0.003710 0.045369 0.002955
v 2.020066 0.045369 0.002954
v -0.003710 0.030724 -0.032401
v 2.020066 0.030724 -0.032401
v -0.003710 -0.004631 -0.047045
v 2.020066 -0.004631 -0.047046
v -0.003710 -0.039986 -0.032401
v 2.020066 -0.039986 -0.032401
v 2.020066 -0.114829 0.002954
v 2.020066 -0.082552 0.080876
v 2.020066 -0.004631 0.113152
v 2.020066 0.073291 0.080876
v 2.020066 0.105567 0.002954
v 2.020066 0.073291 -0.074967
v 2.020066 -0.004631 -0.107243
v 2.020066 -0.082552 -0.074967
v 2.359505 -0.004631 0.002954
vt 1.000000 0.500000
vt 1.000000 1.000000
vt 0.875000 1.000000
vt 0.875000 0.500000
vt 0.750000 1.000000
vt 0.750000 0.500000
vt 0.625000 1.000000
vt 0.625000 0.500000
vt 0.500000 1.000000
vt 0.500000 0.500000
vt 0.375000 1.000000
vt 0.375000 0.500000
vt 0.250000 1.000000
vt 0.250000 0.500000
vt 0.750000 1.000000
vt 0.625000 1.000000
vt 0.125000 1.000000
vt 0.125000 0.500000
vt 0.000000 1.000000
vt 0.000000 0.500000
vt 0.750000 0.490000
vt 0.919706 0.419706
vt 0.990000 0.250000
vt 0.919706 0.080294
vt 0.750000 0.010000
vt 0.580294 0.080294
vt 0.510000 0.250000
vt 0.580294 0.419706
vt 0.125000 1.000000
vt 0.250000 1.000000
vt 0.125000 1.000000
vt 0.375000 1.000000
vt 0.500000 1.000000
vt 0.875000 1.000000
vt 0.000000 1.000000
vt 1.000000 1.000000
vt 0.375000 1.000000
vt 0.625000 1.000000
vt 0.875000 1.000000
vt 0.000000 1.000000
vt 0.250000 1.000000
vt 0.500000 1.000000
vt 0.750000 1.000000
vt 1.000000 0.500000
vt 1.000000 1.000000
vt 0.875000 1.000000
vt 0.875000 0.500000
vt 0.750000 1.000000
vt 0.750000 0.500000
vt 0.625000 1.000000
vt 0.625000 0.500000
vt 0.500000 1.000000
vt 0.500000 0.500000
vt 0.375000 1.000000
vt 0.375000 0.500000
vt 0.250000 1.000000
vt 0.250000 0.500000
vt 0.750000 1.000000
vt 0.625000 1.000000
vt 0.125000 1.000000
vt 0.125000 0.500000
vt 0.000000 1.000000
vt 0.000000 0.500000
vt 0.750000 0.490000
vt 0.919706 0.419706
vt 0.990000 0.250000
vt 0.919706 0.080294
vt 0.750000 0.010000
vt 0.580294 0.080294
vt 0.510000 0.250000
vt 0.580294 0.419706
vt 0.125000 1.000000
vt 0.250000 1.000000
vt 0.125000 1.000000
vt 0.375000 1.000000
vt 0.500000 1.000000
vt 0.875000 1.000000
vt 0.000000 1.000000
vt 1.000000 1.000000
vt 0.375000 1.000000
vt 0.625000 1.000000
vt 0.875000 1.000000
vt 0.000000 1.000000
vt 0.250000 1.000000
vt 0.500000 1.000000
vt 0.750000 1.000000
vt 1.000000 0.500000
vt 1.000000 1.000000
vt 0.875000 1.000000
vt 0.875000 0.500000
vt 0.750000 1.000000
vt 0.750000 0.500000
vt 0.625000 1.000000
vt 0.625000 0.500000
vt 0.500000 1.000000
vt 0.500000 0.500000
vt 0.375000 1.000000
vt 0.375000 0.500000
vt 0.250000 1.000000
vt 0.250000 0.500000
vt 0.750000 1.000000
vt 0.625000 1.000000
vt 0.125000 1.000000
vt 0.125000 0.500000
vt 0.000000 1.000000
vt 0.000000 0.500000
vt 0.750000 0.490000
vt 0.919706 0.419706
vt 0.990000 0.250000
vt 0.919706 0.080294
vt 0.750000 0.010000
vt 0.580294 0.080294
vt 0.510000 0.250000
vt 0.580294 0.419706
vt 0.125000 1.000000
vt 0.250000 1.000000
vt 0.125000 1.000000
vt 0.375000 1.000000
vt 0.500000 1.000000
vt 0.875000 1.000000
vt 0.000000 1.000000
vt 1.000000 1.000000
vt 0.375000 1.000000
vt 0.625000 1.000000
vt 0.875000 1.000000
vt 0.000000 1.000000
vt 0.250000 1.000000
vt 0.500000 1.000000
vt 0.750000 1.000000
vn 0.3827 -0.9239 -0.0000
vn 0.9239 -0.3827 -0.0000
vn 0.9239 0.3827 0.0000
vn 0.3827 0.9239 0.0000
vn -0.3827 0.9239 0.0000
vn -0.9239 0.3827 0.0000
vn -0.0000 0.0000 1.0000
vn -0.9239 -0.3827 -0.0000
vn -0.3827 -0.9239 -0.0000
vn -0.8849 -0.3666 -0.2873
vn -0.3666 0.8849 -0.2873
vn 0.8849 0.3666 -0.2873
vn 0.3666 -0.8849 -0.2873
vn -0.3666 -0.8849 -0.2873
vn -0.8849 0.3666 -0.2873
vn 0.3666 0.8849 -0.2873
vn 0.8849 -0.3666 -0.2873
vn 0.0000 -0.9239 0.3827
vn 0.0000 -0.3827 0.9239
vn 0.0000 0.3827 0.9239
vn -0.0000 0.9239 0.3827
vn -0.0000 0.9239 -0.3827
vn -0.0000 0.3827 -0.9239
vn -1.0000 0.0000 0.0000
vn -0.0000 -0.3827 -0.9239
vn 0.0000 -0.9239 -0.3827
vn 0.2873 -0.3666 -0.8849
vn 0.2873 0.8849 -0.3666
vn 0.2873 0.3666 0.8849
vn 0.2873 -0.8849 0.3666
vn 0.2873 -0.8849 -0.3666
vn 0.2873 0.3666 -0.8849
vn 0.2873 0.8849 0.3666
vn 0.2873 -0.3666 0.8849
vn 0.3827 0.0000 -0.9239
vn 0.9239 0.0000 -0.3827
vn 0.9239 0.0000 0.3827
vn 0.3827 0.0000 0.9239
vn -0.3827 0.0000 0.9239
vn -0.9239 0.0000 0.3827
vn 0.0000 -1.0000 0.0000
vn -0.9239 0.0000 -0.3827
vn -0.3827 0.0000 -0.9239
vn -0.8849 0.2873 -0.3666
vn -0.3666 0.2873 0.8849
vn 0.8849 0.2873 0.3666
vn 0.3666 0.2873 -0.8849
vn -0.3666 0.2873 -0.8849
vn -0.8849 0.2873 0.3666
vn 0.3666 0.2873 0.8849
vn 0.8849 0.2873 -0.3666
usemtl Material.001
s off
f 26/1/1 27/2/1 29/3/1 28/4/1
f 28/4/2 29/3/2 31/5/2 30/6/2
f 30/6/3 31/5/3 33/7/3 32/8/3
f 32/8/4 33/7/4 35/9/4 34/10/4
f 34/10/5 35/9/5 37/11/5 36/12/5
f 36/12/6 37/11/6 39/13/6 38/14/6
f 33/7/7 31/5/7 44/15/7 45/16/7
f 38/14/8 39/13/8 41/17/8 40/18/8
f 40/18/9 41/17/9 27/19/9 26/20/9
f 26/21/7 28/22/7 30/23/7 32/24/7 34/25/7 36/26/7 38/27/7 40/28/7
f 49/29/10 48/30/10 50/31/10
f 39/13/7 37/11/7 47/32/7 48/30/7
f 35/9/7 33/7/7 45/16/7 46/33/7
f 41/17/7 39/13/7 48/30/7 49/29/7
f 31/5/7 29/3/7 43/34/7 44/15/7
f 37/11/7 35/9/7 46/33/7 47/32/7
f 27/19/7 41/17/7 49/29/7 42/35/7
f 29/3/7 27/2/7 42/36/7 43/34/7
f 47/32/11 46/33/11 50/37/11
f 45/16/12 44/15/12 50/38/12
f 43/34/13 42/36/13 50/39/13
f 42/35/14 49/29/14 50/40/14
f 48/30/15 47/32/15 50/41/15
f 46/33/16 45/16/16 50/42/16
f 44/15/17 43/34/17 50/43/17
usemtl Material.002
f 51/44/18 52/45/18 54/46/18 53/47/18
f 53/47/19 54/46/19 56/48/19 55/49/19
f 55/49/20 56/48/20 58/50/20 57/51/20
f 57/51/21 58/50/21 60/52/21 59/53/21
f 59/53/22 60/52/22 62/54/22 61/55/22
f 61/55/23 62/54/23 64/56/23 63/57/23
f 58/50/24 56/48/24 69/58/24 70/59/24
f 63/57/25 64/56/25 66/60/25 65/61/25
f 65/61/26 66/60/26 52/62/26 51/63/26
f 51/64/24 53/65/24 55/66/24 57/67/24 59/68/24 61/69/24 63/70/24 65/71/24
f 74/72/27 73/73/27 75/74/27
f 64/56/24 62/54/24 72/75/24 73/73/24
f 60/52/24 58/50/24 70/59/24 71/76/24
f 66/60/24 64/56/24 73/73/24 74/72/24
f 56/48/24 54/46/24 68/77/24 69/58/24
f 62/54/24 60/52/24 71/76/24 72/75/24
f 52/62/24 66/60/24 74/72/24 67/78/24
f 54/46/24 52/45/24 67/79/24 68/77/24
f 72/75/28 71/76/28 75/80/28
f 70/59/29 69/58/29 75/81/29
f 68/77/30 67/79/30 75/82/30
f 67/78/31 74/72/31 75/83/31
f 73/73/32 72/75/32 75/84/32
f 71/76/33 70/59/33 75/85/33
f 69/58/34 68/77/34 75/86/34
usemtl Material.003
f 1/87/35 2/88/35 4/89/35 3/90/35
f 3/90/36 4/89/36 6/91/36 5/92/36
f 5/92/37 6/91/37 8/93/37 7/94/37
f 7/94/38 8/93/38 10/95/38 9/96/38
f 9/96/39 10/95/39 12/97/39 11/98/39
f 11/98/40 12/97/40 14/99/40 13/100/40
f 8/93/41 6/91/41 19/101/41 20/102/41
f 13/100/42 14/99/42 16/103/42 15/104/42
f 15/104/43 16/103/43 2/105/43 1/106/43
f 1/107/41 3/108/41 5/109/41 7/110/41 9/111/41 11/112/41 13/113/41 15/114/41
f 24/115/44 23/116/44 25/117/44
f 14/99/41 12/97/41 22/118/41 23/116/41
f 10/95/41 8/93/41 20/102/41 21/119/41
f 16/103/41 14/99/41 23/116/41 24/115/41
f 6/91/41 4/89/41 18/120/41 19/101/41
f 12/97/41 10/95/41 21/119/41 22/118/41
f 2/105/41 16/103/41 24/115/41 17/121/41
f 4/89/41 2/88/41 17/122/41 18/120/41
f 22/118/45 21/119/45 25/123/45
f 20/102/46 19/101/46 25/124/46
f 18/120/47 17/122/47 25/125/47
f 17/121/48 24/115/48 25/126/48
f 23/116/49 22/118/49 25/127/49
f 21/119/50 20/102/50 25/128/50
f 19/101/51 18/120/51 25/129/51
